<svg xmlns="http://www.w3.org/2000/svg" viewBox="0 0 16 40">
    <defs>
        <!--
        Icons courtesy [Bootstrap Icons](https://icons.getbootstrap.com/)
        [License](https://github.com/twbs/icons?tab=MIT-1-ov-file)
        -->
        <symbol id="app-icon-printer-fill" viewBox="0 0 16 16">
            <path d="M5 1a2 2 0 0 0-2 2v1h10V3a2 2 0 0 0-2-2zm6 8H5a1 1 0 0 0-1 1v3a1 1 0 0 0 1 1h6a1 1 0 0 0 1-1v-3a1 1 0 0 0-1-1"/>
            <path d="M0 7a2 2 0 0 1 2-2h12a2 2 0 0 1 2 2v3a2 2 0 0 1-2 2h-1v-2a2 2 0 0 0-2-2H5a2 2 0 0 0-2 2v2H2a2 2 0 0 1-2-2zm2.5 1a.5.5 0 1 0 0-1 .5.5 0 0 0 0 1"/>
        </symbol>
        <symbol id="app-icon-question-circle" viewBox="0 0 16 16">
            <path d="M8 15A7 7 0 1 1 8 1a7 7 0 0 1 0 14m0 1A8 8 0 1 0 8 0a8 8 0 0 0 0 16"/>
            <path d="M5.255 5.786a.237.237 0 0 0 .241.247h.825c.138 0 .248-.113.266-.25.09-.656.54-1.134 1.342-1.134.686 0 1.314.343 1.314 1.168 0 .635-.374.927-.965 1.371-.673.489-1.206 1.06-1.168 1.987l.003.217a.25.25 0 0 0 .25.246h.811a.25.25 0 0 0 .25-.25v-.105c0-.718.273-.927 1.01-1.486.609-.463 1.244-.977 1.244-2.056 0-1.511-1.276-2.241-2.673-2.241-1.267 0-2.655.59-2.75 2.286m1.557 5.763c0 .533.425.927 1.01.927.609 0 1.028-.394 1.028-.927 0-.552-.42-.94-1.029-.94-.584 0-1.009.388-1.009.94"/>
        </symbol>
    </defs>
    <use href="#app-icon-printer-fill" x="0" y="0" width="16" height="16"/>
    <use href="#app-icon-question-circle" x="0" y="20" width="16" height="16"/>
</svg>
